<svg xmlns="http://www.w3.org/2000/svg" width="1440" viewBox="0 0 1440 810" height="810" version="1.0"><path fill="#FFF" d="M-144 -81H1584V891H-144z"/><path fill="#FFF" d="M-144 -81H1584V891H-144z"/><path fill="#050A30" d="M-144 -81H1584V891H-144z"/><path fill="#0B1A47" d="M -344.242188 112.34375 L 348.976562 -285.929688 L 506.273438 -12.148438 L -186.945312 386.125 L -344.242188 112.34375"/><path fill="#0B1A47" d="M 151.257812 482.183594 C 142.144531 482.183594 134.757812 489.570312 134.757812 498.683594 C 134.757812 507.792969 142.144531 515.183594 151.257812 515.183594 C 160.367188 515.183594 167.757812 507.792969 167.757812 498.683594 C 167.757812 489.570312 160.367188 482.183594 151.257812 482.183594"/><path fill="#0B1A47" d="M 318.003906 235.742188 C 301.644531 235.742188 288.378906 249.003906 288.378906 265.367188 C 288.378906 281.726562 301.644531 294.992188 318.003906 294.992188 C 334.367188 294.992188 347.628906 281.726562 347.628906 265.367188 C 347.628906 249.003906 334.367188 235.742188 318.003906 235.742188"/><path fill="#0B1A47" d="M 159.132812 328.679688 C 148.570312 328.679688 140.007812 337.242188 140.007812 347.804688 C 140.007812 358.367188 148.570312 366.929688 159.132812 366.929688 C 169.695312 366.929688 178.257812 358.367188 178.257812 347.804688 C 178.257812 337.242188 169.695312 328.679688 159.132812 328.679688"/><path fill="#0B1A47" d="M 837.660156 505.472656 L 1083.339844 367.046875 L 1198.207031 570.914062 L 952.527344 709.339844 L 837.660156 505.472656"/><path fill="#0B1A47" d="M 1180.0625 296.503906 L 1174.726562 294.820312 L 1174.199219 295.09375 L 719.898438 520.328125 L 1074.640625 632.082031 L 1529.46875 406.574219 L 1180.0625 296.503906"/><path fill="#0B1A47" d="M 854.230469 690.964844 C 843.667969 690.964844 835.105469 700.367188 835.105469 711.964844 C 835.105469 723.5625 843.667969 732.964844 854.230469 732.964844 C 864.792969 732.964844 873.355469 723.5625 873.355469 711.964844 C 873.355469 700.367188 864.792969 690.964844 854.230469 690.964844"/><path fill="#0B1A47" d="M 780.148438 711.371094 C 763.785156 711.371094 750.523438 724.636719 750.523438 740.996094 C 750.523438 757.359375 763.785156 770.621094 780.148438 770.621094 C 796.507812 770.621094 809.773438 757.359375 809.773438 740.996094 C 809.773438 724.636719 796.507812 711.371094 780.148438 711.371094"/></svg>