<svg xmlns="http://www.w3.org/2000/svg" width="1440" viewBox="0 0 1440 810" height="810" version="1.0"><path fill="#FFF" d="M-144 -81H1584V891H-144z"/><path fill="#FFF" d="M-144 -81H1584V891H-144z"/><path fill="#050A30" d="M-144 -81H1584V891H-144z"/><path fill="#0B1A47" d="M -186.035156 95.816406 L 386.890625 -233.34375 L 514.292969 -11.589844 L -58.628906 317.570312 L -186.035156 95.816406"/><path fill="#0B1A47" d="M 120.417969 725.035156 C 112.136719 725.035156 105.417969 731.75 105.417969 740.035156 C 105.417969 748.320312 112.136719 755.035156 120.417969 755.035156 C 128.703125 755.035156 135.417969 748.320312 135.417969 740.035156 C 135.417969 731.75 128.703125 725.035156 120.417969 725.035156"/><path fill="#0B1A47" d="M 53.898438 692.4375 C 38.984375 692.4375 26.898438 704.527344 26.898438 719.4375 C 26.898438 734.351562 38.984375 746.4375 53.898438 746.4375 C 68.808594 746.4375 80.898438 734.351562 80.898438 719.4375 C 80.898438 704.527344 68.808594 692.4375 53.898438 692.4375"/><path fill="#0B1A47" d="M 54.121094 628.625 C 44.386719 628.625 36.496094 636.515625 36.496094 646.25 C 36.496094 655.984375 44.386719 663.875 54.121094 663.875 C 63.855469 663.875 71.746094 655.984375 71.746094 646.25 C 71.746094 636.515625 63.855469 628.625 54.121094 628.625"/><path fill="#0B1A47" d="M 1321.351562 692.4375 C 1308.097656 692.4375 1297.351562 704.359375 1297.351562 719.0625 C 1297.351562 733.765625 1308.097656 745.6875 1321.351562 745.6875 C 1334.605469 745.6875 1345.351562 733.765625 1345.351562 719.0625 C 1345.351562 704.359375 1334.605469 692.4375 1321.351562 692.4375"/><path fill="#0B1A47" d="M 1228.597656 717.980469 C 1208.09375 717.980469 1191.472656 734.601562 1191.472656 755.105469 C 1191.472656 775.609375 1208.09375 792.230469 1228.597656 792.230469 C 1249.101562 792.230469 1265.722656 775.609375 1265.722656 755.105469 C 1265.722656 734.601562 1249.101562 717.980469 1228.597656 717.980469"/></svg>